<svg xmlns="http://www.w3.org/2000/svg" width="1440" height="900" viewBox="0 0 1440 900" role="img" aria-labelledby="title desc">
  <title id="title">Scan Repair Studio interface preview</title>
  <desc id="desc">A product preview of the USDZ scan repair web interface with a 3D viewport and repair controls.</desc>
  <defs>
    <linearGradient id="bg" x1="0" y1="0" x2="0" y2="1">
      <stop offset="0" stop-color="#2a261f"/>
      <stop offset="1" stop-color="#121212"/>
    </linearGradient>
    <linearGradient id="mesh" x1="0" y1="0" x2="1" y2="1">
      <stop offset="0" stop-color="#96f0dc"/>
      <stop offset="1" stop-color="#f4c37d"/>
    </linearGradient>
    <filter id="shadow" x="-20%" y="-20%" width="140%" height="140%">
      <feDropShadow dx="0" dy="16" stdDeviation="24" flood-color="#000000" flood-opacity="0.35"/>
    </filter>
  </defs>
  <rect width="1440" height="900" fill="url(#bg)"/>
  <g transform="translate(28 28)">
    <rect x="0" y="0" width="1012" height="844" rx="8" fill="#151515" stroke="#2d302f"/>
    <text x="28" y="42" fill="#96f0dc" font-family="Inter, system-ui, sans-serif" font-size="16" font-weight="700">Scan Repair Studio</text>
    <text x="28" y="78" fill="#f3eee6" font-family="Inter, system-ui, sans-serif" font-size="30" font-weight="760">USDZ 3D Scan Preview &amp; AI Repair</text>
    <g transform="translate(120 146)" filter="url(#shadow)">
      <ellipse cx="380" cy="530" rx="330" ry="40" fill="#050505" opacity="0.55"/>
      <path d="M270 112 C355 50 510 58 590 142 C690 247 656 420 540 500 C434 574 256 545 188 432 C114 310 155 196 270 112Z" fill="#262626" stroke="url(#mesh)" stroke-width="4"/>
      <path d="M270 112 L364 186 L590 142 M364 186 L310 336 L188 432 M364 186 L514 302 L656 420 M310 336 L514 302 L540 500 M310 336 L540 500 M514 302 L590 142" fill="none" stroke="#96f0dc" stroke-opacity="0.55" stroke-width="2"/>
      <path d="M222 236 C318 275 446 253 576 196" fill="none" stroke="#f4c37d" stroke-opacity="0.72" stroke-width="3"/>
      <path d="M198 392 C310 455 430 452 574 396" fill="none" stroke="#f4c37d" stroke-opacity="0.52" stroke-width="3"/>
      <circle cx="270" cy="112" r="8" fill="#96f0dc"/>
      <circle cx="590" cy="142" r="8" fill="#96f0dc"/>
      <circle cx="188" cy="432" r="8" fill="#f4c37d"/>
      <circle cx="540" cy="500" r="8" fill="#f4c37d"/>
    </g>
    <g transform="translate(28 762)">
      <rect x="0" y="0" width="956" height="54" rx="8" fill="#1f1e1c" stroke="#34312b"/>
      <text x="20" y="34" fill="#f3eee6" font-family="Inter, system-ui, sans-serif" font-size="15">Original</text>
      <rect x="110" y="12" width="96" height="30" rx="6" fill="#f4c37d"/>
      <text x="135" y="33" fill="#10211f" font-family="Inter, system-ui, sans-serif" font-size="14" font-weight="800">Solid</text>
      <text x="238" y="34" fill="#b8b0a5" font-family="Inter, system-ui, sans-serif" font-size="15">Wireframe</text>
      <text x="358" y="34" fill="#b8b0a5" font-family="Inter, system-ui, sans-serif" font-size="15">Point cloud</text>
      <text x="790" y="34" fill="#96f0dc" font-family="Inter, system-ui, sans-serif" font-size="15" font-weight="700">Ready for USDZ import</text>
    </g>
  </g>
  <g transform="translate(1070 28)">
    <rect x="0" y="0" width="342" height="844" rx="8" fill="#171614" stroke="#2f2c27"/>
    <g transform="translate(20 22)">
      <rect x="0" y="0" width="302" height="122" rx="8" fill="#1b2a28" stroke="#549c8e" stroke-dasharray="8 8"/>
      <text x="22" y="45" fill="#f3eee6" font-family="Inter, system-ui, sans-serif" font-size="18" font-weight="760">Drop USDZ Scan</text>
      <text x="22" y="78" fill="#b8d9d2" font-family="Inter, system-ui, sans-serif" font-size="14">Local browser parsing</text>
    </g>
    <g transform="translate(20 168)">
      <rect x="0" y="0" width="302" height="190" rx="8" fill="#23211d" stroke="#37342f"/>
      <text x="16" y="32" fill="#f4c37d" font-family="Inter, system-ui, sans-serif" font-size="15" font-weight="700">3D AI Studio API</text>
      <rect x="16" y="52" width="270" height="38" rx="6" fill="#111111" stroke="#403d37"/>
      <text x="28" y="77" fill="#7f7770" font-family="Inter, system-ui, sans-serif" font-size="13">API Key kept in page state</text>
      <rect x="16" y="108" width="126" height="34" rx="6" fill="#111111" stroke="#403d37"/>
      <text x="34" y="131" fill="#f3eee6" font-family="Inter, system-ui, sans-serif" font-size="13">Bake textures</text>
      <rect x="160" y="108" width="126" height="34" rx="6" fill="#111111" stroke="#403d37"/>
      <text x="194" y="131" fill="#f3eee6" font-family="Inter, system-ui, sans-serif" font-size="13">Hollow off</text>
      <rect x="16" y="154" width="270" height="38" rx="6" fill="#96f0dc"/>
      <text x="105" y="179" fill="#10211f" font-family="Inter, system-ui, sans-serif" font-size="15" font-weight="820">AI Repair</text>
    </g>
    <g transform="translate(20 382)">
      <rect x="0" y="0" width="302" height="156" rx="8" fill="#20201d" stroke="#37342f"/>
      <text x="16" y="32" fill="#f4c37d" font-family="Inter, system-ui, sans-serif" font-size="15" font-weight="700">Preview</text>
      <rect x="16" y="52" width="64" height="32" rx="6" fill="#f4c37d"/>
      <text x="28" y="74" fill="#10211f" font-family="Inter, system-ui, sans-serif" font-size="13" font-weight="800">Original</text>
      <rect x="88" y="52" width="64" height="32" rx="6" fill="#111111"/>
      <text x="101" y="74" fill="#b8b0a5" font-family="Inter, system-ui, sans-serif" font-size="13">Fixed</text>
      <rect x="160" y="52" width="126" height="32" rx="6" fill="#111111"/>
      <text x="185" y="74" fill="#b8b0a5" font-family="Inter, system-ui, sans-serif" font-size="13">Compare</text>
      <rect x="16" y="102" width="270" height="36" rx="6" fill="#2d2923"/>
      <text x="99" y="126" fill="#f3eee6" font-family="Inter, system-ui, sans-serif" font-size="14">Solid comparison</text>
    </g>
    <g transform="translate(20 562)">
      <rect x="0" y="0" width="302" height="172" rx="8" fill="#20201d" stroke="#37342f"/>
      <text x="16" y="32" fill="#f4c37d" font-family="Inter, system-ui, sans-serif" font-size="15" font-weight="700">Repair comparison</text>
      <text x="16" y="68" fill="#877f75" font-family="Inter, system-ui, sans-serif" font-size="13">Meshes</text>
      <text x="210" y="68" fill="#f3eee6" font-family="Inter, system-ui, sans-serif" font-size="13">12 -&gt; 1</text>
      <text x="16" y="101" fill="#877f75" font-family="Inter, system-ui, sans-serif" font-size="13">Vertices</text>
      <text x="188" y="101" fill="#96f0dc" font-family="Inter, system-ui, sans-serif" font-size="13">+18.4%</text>
      <text x="16" y="134" fill="#877f75" font-family="Inter, system-ui, sans-serif" font-size="13">Triangles</text>
      <text x="188" y="134" fill="#f4c37d" font-family="Inter, system-ui, sans-serif" font-size="13">-6.8%</text>
    </g>
  </g>
</svg>
